<svg width="21.998" xmlns="http://www.w3.org/2000/svg" height="20.727" id="screenshot-68ae29ba-4b14-80f7-8006-c134c4a3b6b6" viewBox="0 0 21.998 20.727" xmlns:xlink="http://www.w3.org/1999/xlink" fill="none" version="1.1"><g id="shape-68ae29ba-4b14-80f7-8006-c134c4a3b6b6" rx="0" ry="0" style="fill: rgb(0, 0, 0);"><g id="shape-68ae29ba-4b14-80f7-8006-c134c4a3b6b7"><g class="fills" id="fills-68ae29ba-4b14-80f7-8006-c134c4a3b6b7"><path d="M0.75,1.2260150909423828L3.75,1.2260150909423828C4.166015625,1.2260150909423828,4.5,1.5599994659423828,4.5,1.9760150909423828L4.5,19.976015090942383C4.5,20.392030715942383,4.166015625,20.726015090942383,3.75,20.726015090942383L0.75,20.726015090942383C0.333984375,20.726015090942383,0,20.392030715942383,0,19.976015090942383L0,1.9760150909423828C0,1.5599994659423828,0.333984375,1.2260150909423828,0.75,1.2260150909423828ZM0.75,1.2260150909423828" style="fill: rgb(34, 34, 34);"/></g></g><g id="shape-68ae29ba-4b14-80f7-8006-c134c4a3b6b8"><g class="fills" id="fills-68ae29ba-4b14-80f7-8006-c134c4a3b6b8"><path d="M6.75,4.226015090942383L8.25,4.226015090942383C8.666015625,4.226015090942383,9,4.559999465942383,9,4.976015090942383L9,19.976015090942383C9,20.392030715942383,8.666015625,20.726015090942383,8.25,20.726015090942383L6.75,20.726015090942383C6.333984375,20.726015090942383,6,20.392030715942383,6,19.976015090942383L6,4.976015090942383C6,4.559999465942383,6.333984375,4.226015090942383,6.75,4.226015090942383ZM6.75,4.226015090942383" style="fill: rgb(34, 34, 34);"/></g></g><g id="shape-68ae29ba-4b14-80f7-8006-c134c4a3b6b9"><g class="fills" id="fills-68ae29ba-4b14-80f7-8006-c134c4a3b6b9"><path d="M11.25,2.726015090942383L12.75,2.726015090942383C13.166015625,2.726015090942383,13.5,3.059999465942383,13.5,3.476015090942383L13.5,19.976015090942383C13.5,20.392030715942383,13.166015625,20.726015090942383,12.75,20.726015090942383L11.25,20.726015090942383C10.833984375,20.726015090942383,10.5,20.392030715942383,10.5,19.976015090942383L10.5,3.476015090942383C10.5,3.059999465942383,10.833984375,2.726015090942383,11.25,2.726015090942383ZM11.25,2.726015090942383" style="fill: rgb(34, 34, 34);"/></g></g><g id="shape-68ae29ba-4b14-80f7-8006-c134c4a3b6ba"><g class="fills" id="fills-68ae29ba-4b14-80f7-8006-c134c4a3b6ba"><path d="M14.560546875,0.4174213707447052L16.0078125,0.024843251332640648C16.40625,-0.0806254968047142,16.81640625,0.1596088707447052,16.927734375,0.5580464005470276L21.97265625,19.395936965942383C22.078125,19.794374465942383,21.84375,20.204530715942383,21.439453125,20.309999465942383L19.9921875,20.702577590942383C19.59375,20.808046340942383,19.18359375,20.567811965942383,19.072265625,20.169374465942383L14.02734375,1.3373432159423828C13.921875,0.9330464005470276,14.15625,0.5228901505470276,14.560546875,0.4174213707447052ZM14.560546875,0.4174213707447052" style="fill: rgb(34, 34, 34);"/></g></g></g></svg>