<svg width="24.324" xmlns="http://www.w3.org/2000/svg" height="24.324" id="screenshot-68ae29ba-4b14-80f7-8006-c134c4a3b6ae" viewBox="-0.162 -0.162 24.324 24.324" xmlns:xlink="http://www.w3.org/1999/xlink" fill="none" version="1.1"><g id="shape-68ae29ba-4b14-80f7-8006-c134c4a3b6ae" height="16" width="16" rx="0" ry="0" style="fill: rgb(0, 0, 0);"><g id="shape-68ae29ba-4b14-80f7-8006-c134c4a3b6af" style="display: none;"><g class="fills" id="fills-68ae29ba-4b14-80f7-8006-c134c4a3b6af"><rect width="24" height="24" x="0" transform="matrix(0.999907, -0.013609, 0.013609, 0.999907, -0.162197, 0.164420)" style="fill: none;" ry="0" fill="none" rx="0" y="0"/></g></g><g id="shape-68ae29ba-4b14-80f7-8006-c134c4a3b6b0" rx="0" ry="0" style="fill: rgb(0, 0, 0);"><g id="shape-68ae29ba-4b14-80f7-8006-c134c4a3b6b1"><g class="fills" id="fills-68ae29ba-4b14-80f7-8006-c134c4a3b6b1"><path d="M20.90066909790039,4.642002105712891L20.97879409790039,10.37759780883789C21.02322769165039,13.64688491821289,18.33023452758789,16.41421890258789,15.06094741821289,16.45889663696289L9.68252944946289,16.53189468383789L6.723667144775391,19.57242202758789L15.10184097290039,19.45840835571289L19.66263198852539,23.89688491821289L19.60135269165039,19.39737319946289C22.06790542602539,19.36368179321289,24.07327651977539,17.30289077758789,24.03970718383789,14.83633804321289L23.95804214477539,8.83682632446289C23.93167495727539,6.897617340087891,22.64932632446289,5.245029449462891,20.90066909790039,4.642002105712891ZM20.90066909790039,4.642002105712891" style="fill: rgb(34, 34, 34);"/></g></g><g id="shape-68ae29ba-4b14-80f7-8006-c134c4a3b6b2"><g class="fills" id="fills-68ae29ba-4b14-80f7-8006-c134c4a3b6b2"><path d="M4.337436676025391,0.10318390280008316C1.8707619905471802,0.13663117587566376,-0.13448698818683624,2.1974222660064697,-0.10091765969991684,4.663974761962891L-0.01925262063741684,10.66348648071289C0.014316716231405735,13.13003921508789,2.0749857425689697,15.13541030883789,4.541538238525391,15.10171890258789L4.602817535400391,19.60147476196289L9.04104995727539,15.04043960571289L15.04056167602539,14.95889663696289C17.50711441040039,14.92520523071289,19.51248550415039,12.86465835571289,19.47891616821289,10.39810562133789L19.39725112915039,4.398593902587891C19.36368179321289,1.9320412874221802,17.30301284790039,-0.07332976907491684,14.83646011352539,-0.03963836282491684ZM4.337436676025391,0.10318390280008316" style="fill: rgb(34, 34, 34);"/></g></g></g></g></svg>