<svg width="23" xmlns="http://www.w3.org/2000/svg" height="25" id="screenshot-68ae29ba-4b14-80f7-8006-c134c4a3b6aa" viewBox="0 0 23 25" xmlns:xlink="http://www.w3.org/1999/xlink" fill="none" version="1.1"><g id="shape-68ae29ba-4b14-80f7-8006-c134c4a3b6aa" height="16" width="16" rx="0" ry="0" style="fill: rgb(0, 0, 0);"><g id="shape-68ae29ba-4b14-80f7-8006-c134c4a3b6ab" style="display: none;"><g class="fills" id="fills-68ae29ba-4b14-80f7-8006-c134c4a3b6ab"><rect width="16.303797468354333" height="16" x="0" transform="matrix(1.000000, 0.000000, 0.000000, 1.000000, 0.000000, 0.000000)" style="fill: none;" ry="0" fill="none" rx="0" y="0"/></g></g><g id="shape-68ae29ba-4b14-80f7-8006-c134c4a3b6ac"><g class="fills" id="fills-68ae29ba-4b14-80f7-8006-c134c4a3b6ac"><path d="M12.51904296875,1C9.625732421875,1,7.2784423828125,3.3037109375,7.2784423828125,6.142822265625C7.2784423828125,8.982177734375,9.625732421875,11.28564453125,12.51904296875,11.28564453125C15.4122314453125,11.28564453125,17.759521484375,8.982177734375,17.759521484375,6.142822265625C17.759521484375,3.3037109375,15.4122314453125,1,12.51904296875,1ZM9.898681640625,13C5.5452880859375,13,2.0379638671875,16.44189453125,2.0379638671875,20.71435546875L2.0379638671875,23.28564453125C2.0379638671875,25,3.7847900390625,25,3.7847900390625,25L21.253173828125,25C21.253173828125,25,23,25,23,23.28564453125L23,20.71435546875C23,16.44189453125,19.49267578125,13,15.1392822265625,13ZM9.898681640625,13" style="fill: rgb(34, 34, 34);"/></g></g></g></svg>