<?xml version="1.0" encoding="UTF-8" standalone="no"?>
<svg height="128px" viewBox="0 0 128 128" width="128px" version="1.1" id="svg12" sodipodi:docname="iamteacher.svg" inkscape:version="1.4.2 (ebf0e940d0, 2025-05-08)" inkscape:export-filename="iAmTeacher.png" inkscape:export-xdpi="384" inkscape:export-ydpi="384" xmlns:inkscape="http://www.inkscape.org/namespaces/inkscape" xmlns:sodipodi="http://sodipodi.sourceforge.net/DTD/sodipodi-0.dtd" xmlns:xlink="http://www.w3.org/1999/xlink" xmlns="http://www.w3.org/2000/svg" xmlns:svg="http://www.w3.org/2000/svg">
  <defs id="defs12">
    <linearGradient id="linearGradient1" inkscape:collect="always">
      <stop style="stop-color:#b3c6d0;stop-opacity:1;" offset="0" id="stop7"/>
      <stop style="stop-color:#ffffff;stop-opacity:0;" offset="1" id="stop10"/>
    </linearGradient>
    <linearGradient id="linearGradient17" inkscape:collect="always">
      <stop style="stop-color:#597785;stop-opacity:1;" offset="0" id="stop17"/>
      <stop style="stop-color:#9fadbc;stop-opacity:1;" offset="1" id="stop18"/>
    </linearGradient>
    <linearGradient id="linearGradient15" inkscape:collect="always">
      <stop style="stop-color:#7795a3;stop-opacity:1;" offset="0.29821712" id="stop16"/>
      <stop style="stop-color:#456371;stop-opacity:1;" offset="0.59665322" id="stop15"/>
    </linearGradient>
    <linearGradient id="linearGradient13" inkscape:collect="always">
      <stop style="stop-color:#241f31;stop-opacity:1;" offset="0" id="stop14"/>
      <stop style="stop-color:#3d3846;stop-opacity:1;" offset="0.50023311" id="stop13"/>
    </linearGradient>
    <linearGradient id="linearGradient11" inkscape:collect="always">
      <stop style="stop-color:#3d3846;stop-opacity:1;" offset="0.24966094" id="stop11"/>
      <stop style="stop-color:#241f31;stop-opacity:1;" offset="0.69836396" id="stop12"/>
    </linearGradient>
    <linearGradient id="linearGradient8" inkscape:collect="always">
      <stop style="stop-color:#b3c6d0;stop-opacity:1;" offset="0" id="stop8"/>
      <stop style="stop-color:#7795a3;stop-opacity:1;" offset="1" id="stop9"/>
    </linearGradient>
    <linearGradient inkscape:collect="always" xlink:href="#linearGradient8" id="linearGradient9" x1="63.999962" y1="3.9893782" x2="63.999962" y2="116.01051" gradientUnits="userSpaceOnUse" gradientTransform="matrix(0.71415035,0,0,0.71415035,18.294376,13.831663)"/>
    <linearGradient inkscape:collect="always" xlink:href="#linearGradient11" id="linearGradient12" x1="64" y1="19.068008" x2="64" y2="51.068008" gradientUnits="userSpaceOnUse" gradientTransform="translate(4.4305324e-7,-2.3041824)"/>
    <linearGradient inkscape:collect="always" xlink:href="#linearGradient13" id="linearGradient14" x1="-6.5996833" y1="76.028206" x2="18.278053" y2="51.150467" gradientUnits="userSpaceOnUse" gradientTransform="translate(2.972072,-2.9720715)"/>
    <linearGradient inkscape:collect="always" xlink:href="#linearGradient15" id="linearGradient16" x1="63.65303" y1="77.04612" x2="63.65303" y2="162.58888" gradientUnits="userSpaceOnUse" gradientTransform="matrix(1.0521053,0,0,1,-2.9696952,-3.18872)"/>
    <linearGradient inkscape:collect="always" xlink:href="#linearGradient17" id="linearGradient18" x1="63.437031" y1="96.415665" x2="63.437031" y2="108.36864" gradientUnits="userSpaceOnUse" gradientTransform="matrix(1,0,0,0.74430513,0.56298066,23.915388)"/>
    <linearGradient inkscape:collect="always" xlink:href="#linearGradient1" id="linearGradient10" x1="54.292301" y1="74.813927" x2="54.292301" y2="85.182747" gradientUnits="userSpaceOnUse" gradientTransform="matrix(1.125,0,0,1.125,2.8617737,-6.5172372)"/>
    <linearGradient inkscape:collect="always" xlink:href="#a" id="linearGradient36" gradientUnits="userSpaceOnUse" gradientTransform="matrix(0.71415035,0,0,0.71415035,18.294376,13.831663)" x1="8.000547" y1="64.000443" x2="119.999451" y2="64.000443"/>
  </defs>
  <sodipodi:namedview id="namedview12" pagecolor="#ffffff" bordercolor="#000000" borderopacity="0.25" inkscape:showpageshadow="2" inkscape:pageopacity="0.0" inkscape:pagecheckerboard="0" inkscape:deskcolor="#d1d1d1" inkscape:zoom="2.4550375" inkscape:cx="5.0915719" inkscape:cy="28.105477" inkscape:window-width="1920" inkscape:window-height="1011" inkscape:window-x="0" inkscape:window-y="0" inkscape:window-maximized="1" inkscape:current-layer="svg12"/>
  <linearGradient id="a" gradientUnits="userSpaceOnUse" x1="8.000547" x2="119.999451" y1="64.000443" y2="64.000443" gradientTransform="matrix(0.71415035,0,0,0.71415035,18.294376,13.831663)">
    <stop offset="0" stop-color="#a51d2d" id="stop1" style="stop-color:#456371;stop-opacity:1;"/>
    <stop offset="0.0357097" stop-color="#ed333b" id="stop2" style="stop-color:#7795a3;stop-opacity:1;"/>
    <stop offset="0.0714244" stop-color="#c01c28" id="stop3" style="stop-color:#456371;stop-opacity:1;"/>
    <stop offset="0.92857599" stop-color="#a51d2d" id="stop4" style="stop-color:#456371;stop-opacity:1;"/>
    <stop offset="0.96429002" stop-color="#ed333b" id="stop5" style="stop-color:#7795a3;stop-opacity:1;"/>
    <stop offset="1" stop-color="#a51d2d" id="stop6" style="stop-color:#456371;stop-opacity:1;"/>
  </linearGradient>
  <g id="g20" transform="matrix(0.91332326,0,0,0.91332326,14.721369,1.930155)" style="display:inline">
    <path id="rect19" style="strokeWidth:0.984732" transform="rotate(5.1725074)" d="m 113.36402,21.007814 h 2.44396 v 71.689331 h -2.44396 z"/>
    <path id="rect18" style="fill:#456371;strokeWidth:2" transform="rotate(47.141262)" d="m 143.74707,-10.536284 h 3.45627 c 1.51586,0 2.73621,1.2203523 2.73621,2.7362166 V 11.209438 c 0,1.515864 -1.22035,2.736217 -2.73621,2.736217 h -3.45627 c -1.51587,0 -2.73622,-1.220353 -2.73622,-2.736217 V -7.8000674 c 0,-1.5158643 1.22035,-2.7362166 2.73622,-2.7362166 z"/>
    <g id="g19" transform="matrix(0.88888891,0,0,0.88888891,-2.9335906,9.6771601)">
      <path id="rect16" style="fill:url(#linearGradient18);strokeWidth:1.72546" d="M 58.023525,94.123802 H 69.976472 V 106.12891 H 58.023525 Z"/>
      <path d="m 64.005577,22.401467 c -2.092237,-0.0028 -4.019885,1.140967 -5.021369,2.979346 L 24.769153,88.103299 h -0.761574 v 2.856602 c 0,3.155095 2.558108,5.713203 5.713203,5.713203 h 68.558433 c 3.155095,0 5.713205,-2.558108 5.713205,-5.713203 v -0.03071 -2.825893 h -0.76436 L 69.015789,25.380813 c -1.001484,-1.83559 -2.920763,-2.976556 -5.010212,-2.979346 z" fill="url(#a)" id="path6" sodipodi:nodetypes="scccssssccccs" style="fill:url(#linearGradient36);strokeWidth:0.71415"/>
      <path style="baseline-shift:baseline;display:inline;overflow:visible;vector-effect:none;fill:url(#linearGradient9);stroke:none;strokeWidth:0.71415;strokeLinecap:round;stroke-linejoin:round;stroke-opacity:1;enable-background:accumulate;stop-color:#000000" d="m 62.002609,19.906125 c -1.288199,0.48065 -2.359876,1.409702 -3.018401,2.616692 L 24.704991,85.368046 c -2.075232,3.807072 0.679853,8.447656 5.015791,8.448456 h 68.558433 c 4.335935,-7.14e-4 7.091025,-4.641384 5.015795,-8.448456 L 69.015788,22.522817 c -1.361407,-2.495271 -4.350014,-3.610352 -7.013179,-2.616692 z" id="path13" sodipodi:nodetypes="sccccccs"/>
      <path id="path9" style="fill:#ffffff;stroke:#666666;strokeWidth:1.77778" d="M 71.111109,54.34343 A 7.1111093,7.1111107 0 0 1 64,61.45454 7.1111093,7.1111107 0 0 1 56.888891,54.34343 7.1111093,7.1111107 0 0 1 64,47.232319 7.1111093,7.1111107 0 0 1 71.111109,54.34343 Z"/>
      <path id="rect9" style="fill:url(#linearGradient12);strokeWidth:2.27241e-07" d="m 48,22.763824 h 32 v 20 H 48 Z"/>
      <path id="path10" style="fill:#241f31;strokeWidth:2.05211e-07" d="m 80,42.743172 a 16,2.5 0 0 1 -16,2.5 16,2.5 0 0 1 -16,-2.5 16,2.5 0 0 1 16,-2.5 16,2.5 0 0 1 16,2.5 z"/>
      <path id="rect10" style="fill:url(#linearGradient14);strokeWidth:4.76408e-07" transform="matrix(0.92181122,-0.38763909,0.92181122,0.38763909,0,0)" d="M -8.779973,43.026047 H 26.402484 V 78.208504 H -8.779973 Z"/>
      <g id="path14" style="opacity:1">
        <path style="baseline-shift:baseline;display:inline;overflow:visible;vector-effect:none;fill:#ffffff;enable-background:accumulate;stop-color:#000000;stop-opacity:1" d="M 70.899505,77.143738 A 6.8995047,11.899502 0 0 1 64,89.04324 6.8995047,11.899502 0 0 1 57.100495,77.143738 6.8995047,11.899502 0 0 1 64,65.244236 6.8995047,11.899502 0 0 1 70.899505,77.143738 Z" id="path11"/>
        <path id="path1" style="fill:url(#linearGradient10);strokeWidth:2.25" d="m 69.773075,83.480888 a 5.8324618,5.103404 0 0 1 -5.832462,5.103404 5.8324618,5.103404 0 0 1 -5.832462,-5.103404 5.8324618,5.103404 0 0 1 5.832462,-5.103404 5.8324618,5.103404 0 0 1 5.832462,5.103404 z"/>
        <path style="baseline-shift:baseline;display:inline;overflow:visible;vector-effect:none;fill:#666666;enable-background:accumulate;stop-color:#000000;stop-opacity:1" d="m 64,64.244141 c -2.371291,-10e-7 -4.384863,1.640043 -5.744141,3.984375 -1.359277,2.344331 -2.15625,5.473381 -2.15625,8.916015 0,3.442635 0.796973,6.569732 2.15625,8.914063 1.359278,2.344331 3.37285,3.984375 5.744141,3.984375 2.371291,0 4.384863,-1.640044 5.744141,-3.984375 1.359277,-2.344331 2.15625,-5.471428 2.15625,-8.914063 0,-3.442634 -0.796973,-6.571684 -2.15625,-8.916015 C 68.384863,65.884184 66.371291,64.24414 64,64.244141 Z m 0,2 c 1.4392,0 2.87582,1.023886 4.013672,2.986328 1.137852,1.962441 1.886719,4.784783 1.886719,7.914062 0,3.12928 -0.748867,5.949668 -1.886719,7.91211 C 66.87582,87.019082 65.4392,88.042969 64,88.042969 c -1.4392,0 -2.87582,-1.023887 -4.013672,-2.986328 -1.137852,-1.962442 -1.886719,-4.78283 -1.886719,-7.91211 0,-3.129279 0.748867,-5.951621 1.886719,-7.914062 C 61.12418,67.268027 62.5608,66.244141 64,66.244141 Z" id="path12"/>
      </g>
      <path id="rect15" style="fill:url(#linearGradient16);strokeWidth:2.05144" d="m 24.328424,103.23572 h 79.343156 c 2.95194,0 5.32842,2.37647 5.32842,5.32842 v 16.12928 H 19.000002 v -16.12928 c 0,-2.95195 2.376477,-5.32842 5.328422,-5.32842 z" sodipodi:nodetypes="sssccss"/>
    </g>
  </g>
</svg>